<?xml version="1.0" standalone="no"?>
<!DOCTYPE svg PUBLIC "-//W3C//DTD SVG 20010904//EN"
 "http://www.w3.org/TR/2001/REC-SVG-20010904/DTD/svg10.dtd">
<svg version="1.0" xmlns="http://www.w3.org/2000/svg"
 width="700.000000pt" height="700.000000pt" viewBox="0 0 700.000000 700.000000"
 preserveAspectRatio="xMidYMid meet">
<metadata>
Created by potrace 1.14, written by Peter Selinger 2001-2017
</metadata>
<g transform="translate(0.000000,700.000000) scale(0.100000,-0.100000)"
fill="#000000" stroke="none">
<path d="M4972 5945 l0 -1055 1015 0 1015 0 -6 143 c-21 525 -233 1009 -606
1377 -100 99 -120 116 -220 191 -125 92 -305 196 -417 240 -62 25 -189 71
-203 74 -8 2 -51 12 -95 24 -44 11 -93 23 -110 25 -125 20 -173 26 -266 31
l-107 6 0 -1056z"/>
<path d="M87 6982 c-9 -2 -17 -5 -17 -6 0 -4 259 -777 267 -796 3 -8 7 -19 9
-25 7 -29 415 -1229 418 -1232 5 -6 657 -5 662 0 2 2 60 170 128 373 69 203
224 663 345 1023 122 360 219 656 216 659 -3 3 -439 6 -531 3 -17 -1 -24 -12
-36 -53 -9 -29 -38 -127 -66 -218 -205 -670 -276 -901 -287 -940 -34 -118 -89
-295 -92 -299 -9 -13 -26 29 -72 179 -65 214 -258 848 -323 1060 -28 91 -57
189 -66 218 -10 34 -20 52 -31 53 -68 2 -511 3 -524 1z"/>
<path d="M4677 6884 c-1 -1 -41 -4 -88 -7 -360 -25 -703 -148 -1013 -364 -84
-59 -107 -78 -195 -158 -323 -294 -543 -679 -629 -1100 -23 -109 -28 -150 -38
-267 -5 -62 -3 -78 7 -78 19 -1 1892 -1 1959 0 l55 0 0 979 c0 539 -3 983 -8
987 -7 7 -44 13 -50 8z"/>
<path d="M2802 4692 l-94 -3 7 -82 c27 -352 142 -685 340 -982 340 -512 891
-841 1510 -901 54 -5 113 -7 155 -5 13 1 15 117 15 983 0 669 -3 982 -10 985
-13 4 -1796 9 -1923 5z"/>
<path d="M5282 4314 c167 -168 480 -483 696 -702 l392 -397 63 65 c221 232
374 496 470 810 36 117 54 193 63 265 3 22 7 46 9 53 3 7 7 57 11 111 l6 99
-1007 0 -1007 0 304 -304z"/>
<path d="M726 4282 c-30 -95 -279 -832 -560 -1661 -53 -157 -96 -287 -96 -291
0 -3 120 -5 266 -5 l266 0 44 140 c24 77 55 174 68 215 l25 75 355 1 355 1 10
-26 c5 -14 31 -93 56 -176 25 -82 52 -168 60 -190 l15 -40 265 0 c146 0 265 2
265 5 0 3 -41 125 -90 272 -222 657 -534 1582 -567 1680 l-35 107 -334 0 -333
0 -35 -107z m467 -702 c48 -151 98 -311 111 -354 14 -44 23 -82 21 -85 -8 -7
-456 -7 -461 1 -2 3 2 26 10 50 8 24 31 97 51 163 20 66 43 137 51 158 7 20
14 38 13 40 0 1 2 9 5 17 2 8 21 69 42 135 48 157 53 170 63 159 5 -5 47 -133
94 -284z"/>
<path d="M4945 3284 l0 -979 75 0 c94 -1 186 10 320 36 340 68 679 238 950
478 l45 40 -67 68 c-37 37 -349 353 -695 702 l-628 633 0 -978z"/>
<path d="M277 2058 c-9 -5 -12 -260 -12 -1033 l-1 -1025 251 0 250 0 -1 353
-1 354 127 -1 c71 -1 130 -3 132 -6 2 -3 24 -43 47 -90 24 -47 53 -101 64
-120 11 -19 44 -82 75 -140 31 -58 74 -139 96 -180 23 -41 52 -96 66 -122 l25
-48 273 0 272 0 -29 53 c-16 28 -51 93 -78 142 -27 50 -53 97 -56 105 -4 8
-18 33 -30 55 -13 22 -44 78 -69 125 -26 47 -74 134 -107 195 l-60 109 62 35
c118 66 222 197 262 328 23 73 30 138 29 253 -3 359 -224 598 -609 656 -58 9
-964 11 -978 2z m803 -402 c127 -11 214 -68 249 -162 39 -104 20 -243 -42
-304 -72 -71 -150 -90 -372 -90 l-152 0 0 280 0 279 56 3 c68 4 187 1 261 -6z"/>
<path d="M2687 2058 c-7 -4 -10 -312 -9 -1020 0 -557 1 -1019 1 -1026 1 -10
54 -12 249 -10 l247 3 0 587 c0 323 3 590 7 593 7 7 12 -1 620 -883 37 -53 99
-143 138 -200 l72 -102 211 2 211 3 0 1012 c1 556 -1 1020 -4 1030 -5 17 -22
18 -247 18 -155 0 -243 -4 -244 -10 -1 -5 -2 -272 -3 -592 0 -326 -5 -584 -10
-585 -8 -3 -82 103 -380 542 -46 69 -111 163 -143 210 -32 47 -112 163 -176
258 -65 94 -123 173 -130 173 -46 5 -401 3 -410 -3z"/>
<path d="M5614 2055 c-2 -5 -108 -318 -235 -695 -127 -377 -282 -837 -344
-1022 l-114 -338 268 0 268 0 23 73 c12 39 30 97 40 127 10 30 30 94 45 142
14 47 32 88 38 90 7 2 167 3 356 3 l344 -1 13 -35 c7 -19 31 -95 54 -169 23
-74 49 -156 57 -182 l15 -48 268 0 268 0 -153 452 c-84 249 -187 557 -230 683
-43 127 -129 383 -192 570 -63 187 -119 344 -124 350 -13 13 -660 14 -665 0z
m360 -563 c8 -26 38 -121 66 -212 28 -91 72 -227 96 -303 24 -76 44 -144 44
-152 0 -11 -42 -14 -234 -14 l-234 0 8 27 c4 15 22 70 38 122 17 52 60 192 97
310 37 118 72 229 78 247 13 40 22 35 41 -25z"/>
</g>
</svg>
