<svg width="29" height="29" viewBox="0 0 29 29" fill="none" xmlns="http://www.w3.org/2000/svg">
<path d="M27.3999 0H1.60008C0.716382 0 0 0.716382 0 1.60008V27.3999C0 28.2836 0.716382 29 1.60008 29H27.3999C28.2836 29 29 28.2836 29 27.3999V1.60008C29 0.716382 28.2836 0 27.3999 0Z" fill="#3D5A98"/>
<path d="M20.0071 28.9983V17.7683H23.7758L24.3394 13.392H20.0071V10.5986C20.0071 9.33176 20.36 8.46679 22.1757 8.46679H24.4937V4.54621C23.3713 4.42923 22.2432 4.3736 21.1147 4.37959C17.7773 4.37959 15.4789 6.41338 15.4789 10.1649V13.392H11.7102V17.7683H15.4789V28.9983H20.0071Z" fill="white"/>
</svg>
