<svg width="197" height="53" viewBox="0 0 197 53" fill="none" xmlns="http://www.w3.org/2000/svg">
<path d="M0 5.5H80" stroke="white" stroke-width="3"/>
<path d="M0 48.5H80" stroke="white" stroke-width="3"/>
<path d="M2.016 40V14.08H5.632V25.28H12.288V14.08H15.904V40H12.288V27.872H5.632V40H2.016ZM26.5775 40.288C24.8282 40.288 23.4308 39.9467 22.3855 39.264C21.3402 38.5813 20.5935 37.6107 20.1455 36.352C19.6975 35.072 19.4735 33.5787 19.4735 31.872V22.048C19.4735 20.3413 19.6975 18.88 20.1455 17.664C20.6148 16.4267 21.3615 15.488 22.3855 14.848C23.4308 14.1867 24.8282 13.856 26.5775 13.856C28.3268 13.856 29.7135 14.1867 30.7375 14.848C31.7615 15.5093 32.4975 16.448 32.9455 17.664C33.4148 18.88 33.6495 20.3413 33.6495 22.048V31.904C33.6495 33.5893 33.4148 35.0613 32.9455 36.32C32.4975 37.5787 31.7615 38.56 30.7375 39.264C29.7135 39.9467 28.3268 40.288 26.5775 40.288ZM26.5775 37.44C27.5375 37.44 28.2628 37.248 28.7535 36.864C29.2442 36.4587 29.5748 35.904 29.7455 35.2C29.9162 34.4747 30.0015 33.632 30.0015 32.672V21.312C30.0015 20.352 29.9162 19.5307 29.7455 18.848C29.5748 18.144 29.2442 17.6107 28.7535 17.248C28.2628 16.864 27.5375 16.672 26.5775 16.672C25.6175 16.672 24.8815 16.864 24.3695 17.248C23.8788 17.6107 23.5482 18.144 23.3775 18.848C23.2068 19.5307 23.1215 20.352 23.1215 21.312V32.672C23.1215 33.632 23.2068 34.4747 23.3775 35.2C23.5482 35.904 23.8788 36.4587 24.3695 36.864C24.8815 37.248 25.6175 37.44 26.5775 37.44ZM43.8915 40.288C42.0142 40.288 40.5742 39.9147 39.5715 39.168C38.5688 38.4213 37.8862 37.376 37.5235 36.032C37.1608 34.6667 36.9795 33.0773 36.9795 31.264V14.08H40.4355V31.424C40.4355 32.5333 40.5102 33.5467 40.6595 34.464C40.8088 35.3813 41.1288 36.1067 41.6195 36.64C42.1315 37.1733 42.8888 37.44 43.8915 37.44C44.9155 37.44 45.6728 37.1733 46.1635 36.64C46.6542 36.1067 46.9742 35.3813 47.1235 34.464C47.2728 33.5467 47.3475 32.5333 47.3475 31.424V14.08H50.7715V31.264C50.7715 33.0773 50.5902 34.6667 50.2275 36.032C49.8648 37.376 49.1822 38.4213 48.1795 39.168C47.1982 39.9147 45.7688 40.288 43.8915 40.288ZM60.6905 40.288C59.1972 40.288 57.9492 39.968 56.9465 39.328C55.9652 38.688 55.2185 37.8027 54.7065 36.672C54.1945 35.5413 53.8958 34.2293 53.8105 32.736L57.0105 31.872C57.0745 32.7893 57.2132 33.6747 57.4265 34.528C57.6612 35.3813 58.0345 36.0853 58.5465 36.64C59.0585 37.1733 59.7732 37.44 60.6905 37.44C61.6292 37.44 62.3332 37.184 62.8025 36.672C63.2932 36.1387 63.5385 35.3813 63.5385 34.4C63.5385 33.2267 63.2718 32.288 62.7385 31.584C62.2052 30.8587 61.5332 30.1333 60.7225 29.408L56.3705 25.568C55.5172 24.8213 54.8878 24.0107 54.4825 23.136C54.0772 22.24 53.8745 21.1413 53.8745 19.84C53.8745 17.9413 54.4185 16.4693 55.5065 15.424C56.5945 14.3787 58.0772 13.856 59.9545 13.856C60.9785 13.856 61.8745 13.9947 62.6425 14.272C63.4318 14.528 64.0825 14.9333 64.5945 15.488C65.1278 16.0427 65.5438 16.7467 65.8425 17.6C66.1625 18.432 66.3758 19.4133 66.4825 20.544L63.4105 21.376C63.3465 20.5227 63.2185 19.744 63.0265 19.04C62.8345 18.3147 62.4932 17.7387 62.0025 17.312C61.5332 16.864 60.8505 16.64 59.9545 16.64C59.0585 16.64 58.3545 16.8853 57.8425 17.376C57.3518 17.8453 57.1065 18.5493 57.1065 19.488C57.1065 20.2773 57.2345 20.928 57.4905 21.44C57.7678 21.952 58.2052 22.4747 58.8025 23.008L63.1865 26.848C64.1678 27.7013 65.0318 28.7253 65.7785 29.92C66.5252 31.0933 66.8985 32.4907 66.8985 34.112C66.8985 35.392 66.6318 36.5013 66.0985 37.44C65.5652 38.3573 64.8292 39.0613 63.8905 39.552C62.9732 40.0427 61.9065 40.288 60.6905 40.288ZM69.7035 40V14.08H79.7515V16.768H73.3195V25.344H78.5355V27.904H73.3195V37.408H79.8155V40H69.7035ZM90.0473 40V14.08H100.095V16.768H93.6633V25.344H98.8793V27.904H93.6633V37.408H100.159V40H90.0473ZM101.479 40L106.887 26.432L101.575 14.08H104.935L108.871 23.232L112.455 14.08H115.815L110.375 26.72L116.071 40H112.711L108.487 30.24L104.839 40H101.479ZM118.516 40V14.08H124.948C126.505 14.08 127.743 14.368 128.66 14.944C129.599 15.4987 130.281 16.3093 130.708 17.376C131.135 18.4427 131.348 19.7333 131.348 21.248C131.348 22.6133 131.103 23.7973 130.612 24.8C130.143 25.8027 129.439 26.5813 128.5 27.136C127.561 27.6693 126.388 27.936 124.98 27.936H122.132V40H118.516ZM122.132 25.344H123.796C124.841 25.344 125.663 25.2267 126.26 24.992C126.857 24.7573 127.284 24.352 127.54 23.776C127.796 23.1787 127.924 22.3467 127.924 21.28C127.924 20.0427 127.828 19.0933 127.636 18.432C127.465 17.7707 127.092 17.312 126.516 17.056C125.94 16.8 125.044 16.672 123.828 16.672H122.132V25.344ZM133.891 40V14.08H143.939V16.768H137.507V25.344H142.723V27.904H137.507V37.408H144.003V40H133.891ZM146.922 40V14.08H152.138C153.866 14.08 155.296 14.3147 156.426 14.784C157.557 15.232 158.389 15.968 158.922 16.992C159.477 17.9947 159.754 19.3173 159.754 20.96C159.754 21.9627 159.648 22.88 159.434 23.712C159.221 24.5227 158.88 25.216 158.41 25.792C157.941 26.3467 157.322 26.752 156.554 27.008L160.234 40H156.746L153.354 27.84H150.538V40H146.922ZM150.538 25.248H151.914C152.938 25.248 153.77 25.12 154.41 24.864C155.05 24.608 155.52 24.1707 155.818 23.552C156.117 22.9333 156.266 22.0693 156.266 20.96C156.266 19.4453 155.989 18.3573 155.434 17.696C154.88 17.0133 153.781 16.672 152.138 16.672H150.538V25.248ZM166.364 40V16.768H161.98V14.08H174.236V16.768H169.98V40H166.364Z" fill="white"/>
</svg>
