<svg width="100" height="50" viewBox="0 0 100 50" fill="none" xmlns="http://www.w3.org/2000/svg">
<path d="M15.3 42.6C15.91 42.6 16.495 42.3577 16.9263 41.9263C17.3577 41.495 17.6 40.91 17.6 40.3C17.6 39.69 17.3577 39.105 16.9263 38.6737C16.495 38.2423 15.91 38 15.3 38C14.69 38 14.105 38.2423 13.6737 38.6737C13.2423 39.105 13 39.69 13 40.3C13 40.91 13.2423 41.495 13.6737 41.9263C14.105 42.3577 14.69 42.6 15.3 42.6Z" fill="white"/>
<path d="M15.6203 29.1677C14.2536 29.1754 13.044 28.8905 11.9915 28.3131C10.939 27.719 10.1104 26.8986 9.50591 25.852C8.90139 24.8054 8.59622 23.6071 8.5904 22.2571C8.58451 20.8905 8.86266 19.6889 9.42487 18.6524C9.987 17.5992 10.7584 16.7698 11.7392 16.1643C12.7366 15.5587 13.8852 15.2522 15.1852 15.2449C16.4519 15.2378 17.5531 15.5233 18.4889 16.1014C19.4414 16.6627 20.1698 17.4503 20.6742 18.4641C21.1952 19.4779 21.4585 20.6347 21.4641 21.9347C21.4653 22.218 21.3747 22.4519 21.1921 22.6363C21.0095 22.804 20.7766 22.8886 20.4932 22.8902L10.0434 22.9489L10.036 21.224L20.6108 21.1645L19.539 21.9205C19.5518 21.0038 19.3815 20.1797 19.0284 19.4484C18.6752 18.717 18.1728 18.1448 17.521 17.7318C16.8692 17.3188 16.0933 17.1148 15.1933 17.1199C14.2433 17.1252 13.4109 17.3466 12.6962 17.784C11.998 18.2212 11.459 18.8326 11.079 19.6181C10.7157 20.3868 10.5361 21.2628 10.5404 22.2461C10.5446 23.2295 10.765 24.1032 11.2017 24.8675C11.6383 25.6317 12.2326 26.2284 12.9844 26.6575C13.7529 27.0865 14.6289 27.2982 15.6122 27.2927C16.1788 27.2895 16.7534 27.1863 17.3359 26.983C17.935 26.7796 18.4089 26.527 18.7576 26.225C18.9569 26.0739 19.1816 25.9976 19.4316 25.9962C19.6982 25.978 19.9152 26.0435 20.0825 26.1925C20.3334 26.4078 20.4594 26.6404 20.4605 26.8904C20.4782 27.1403 20.3708 27.3576 20.1383 27.5423C19.5903 28.012 18.892 28.3993 18.0433 28.7041C17.1946 29.0088 16.3869 29.1634 15.6203 29.1677Z" fill="white"/>
<path d="M46.375 29.125C45.0583 29.125 43.8833 28.825 42.85 28.225C41.8167 27.6083 41 26.775 40.4 25.725C39.8167 24.675 39.525 23.4917 39.525 22.175C39.525 20.8417 39.8083 19.65 40.375 18.6C40.9583 17.55 41.7417 16.725 42.725 16.125C43.725 15.5083 44.875 15.2 46.175 15.2C47.175 15.2 48.1 15.4 48.95 15.8C49.8 16.1833 50.55 16.7667 51.2 17.55C51.4 17.7833 51.4667 18.025 51.4 18.275C51.35 18.5083 51.2 18.7167 50.95 18.9C50.75 19.0333 50.525 19.0833 50.275 19.05C50.0417 19 49.825 18.8667 49.625 18.65C48.7083 17.6167 47.5583 17.1 46.175 17.1C45.2583 17.1 44.45 17.3167 43.75 17.75C43.0667 18.1833 42.5333 18.7833 42.15 19.55C41.7667 20.3 41.575 21.175 41.575 22.175C41.575 23.1417 41.775 24.0083 42.175 24.775C42.5917 25.525 43.1583 26.125 43.875 26.575C44.6083 27.0083 45.4417 27.225 46.375 27.225C47.0083 27.225 47.575 27.1417 48.075 26.975C48.5917 26.8083 49.05 26.55 49.45 26.2C49.6833 26.0167 49.9167 25.9167 50.15 25.9C50.3833 25.8833 50.6 25.95 50.8 26.1C51.0167 26.3 51.1417 26.525 51.175 26.775C51.2083 27.025 51.125 27.25 50.925 27.45C49.7083 28.5667 48.1917 29.125 46.375 29.125ZM61.592 29.125C60.3253 29.125 59.192 28.825 58.192 28.225C57.192 27.6083 56.4003 26.775 55.817 25.725C55.2337 24.675 54.942 23.4917 54.942 22.175C54.942 20.8417 55.242 19.65 55.842 18.6C56.4587 17.55 57.292 16.725 58.342 16.125C59.392 15.5083 60.5753 15.2 61.892 15.2C63.192 15.2 64.3587 15.5083 65.392 16.125C66.442 16.725 67.267 17.55 67.867 18.6C68.4837 19.65 68.8003 20.8417 68.817 22.175L67.967 22.6C67.967 23.8333 67.6837 24.9417 67.117 25.925C66.567 26.9083 65.8087 27.6917 64.842 28.275C63.892 28.8417 62.8087 29.125 61.592 29.125ZM61.892 27.225C62.8253 27.225 63.6503 27.0083 64.367 26.575C65.1003 26.125 65.6753 25.5167 66.092 24.75C66.5253 23.9833 66.742 23.125 66.742 22.175C66.742 21.2083 66.5253 20.35 66.092 19.6C65.6753 18.8333 65.1003 18.225 64.367 17.775C63.6503 17.325 62.8253 17.1 61.892 17.1C60.9753 17.1 60.142 17.325 59.392 17.775C58.6587 18.225 58.0753 18.8333 57.642 19.6C57.2087 20.35 56.992 21.2083 56.992 22.175C56.992 23.125 57.2087 23.9833 57.642 24.75C58.0753 25.5167 58.6587 26.125 59.392 26.575C60.142 27.0083 60.9753 27.225 61.892 27.225ZM67.742 29C67.442 29 67.1837 28.9083 66.967 28.725C66.767 28.525 66.667 28.2667 66.667 27.95V23.825L67.142 21.65L68.817 22.175V27.95C68.817 28.2667 68.717 28.525 68.517 28.725C68.317 28.9083 68.0587 29 67.742 29ZM73.9865 20.525C74.0199 19.5083 74.2782 18.6 74.7615 17.8C75.2615 16.9833 75.9115 16.3417 76.7115 15.875C77.5282 15.4083 78.4199 15.175 79.3865 15.175C80.2365 15.175 80.8782 15.3 81.3115 15.55C81.7615 15.8 81.9282 16.1417 81.8115 16.575C81.7615 16.8083 81.6532 16.975 81.4865 17.075C81.3365 17.175 81.1532 17.225 80.9365 17.225C80.7365 17.225 80.5032 17.2083 80.2365 17.175C79.2532 17.0583 78.3782 17.125 77.6115 17.375C76.8615 17.6083 76.2615 18 75.8115 18.55C75.3615 19.1 75.1365 19.7583 75.1365 20.525H73.9865ZM74.1115 29C73.7782 29 73.5199 28.9083 73.3365 28.725C73.1532 28.5417 73.0615 28.2833 73.0615 27.95V16.375C73.0615 16.0417 73.1532 15.7833 73.3365 15.6C73.5199 15.4167 73.7782 15.325 74.1115 15.325C74.4449 15.325 74.6949 15.4167 74.8615 15.6C75.0449 15.7833 75.1365 16.0417 75.1365 16.375V27.95C75.1365 28.2833 75.0449 28.5417 74.8615 28.725C74.6949 28.9083 74.4449 29 74.1115 29ZM90.4555 29.125C89.1388 29.125 87.9555 28.825 86.9055 28.225C85.8555 27.6083 85.0221 26.775 84.4055 25.725C83.8055 24.675 83.5055 23.4833 83.5055 22.15C83.5055 20.8333 83.7971 19.65 84.3805 18.6C84.9638 17.55 85.7555 16.725 86.7555 16.125C87.7555 15.5083 88.8888 15.2 90.1555 15.2C91.2388 15.2 92.2138 15.4333 93.0805 15.9C93.9638 16.35 94.6805 16.95 95.2305 17.7V10.55C95.2305 10.2167 95.3305 9.95833 95.5305 9.775C95.7471 9.575 96.0055 9.475 96.3055 9.475C96.6221 9.475 96.8805 9.575 97.0805 9.775C97.2805 9.95833 97.3805 10.2167 97.3805 10.55V22.225C97.3471 23.525 97.0221 24.7 96.4055 25.75C95.8055 26.7833 94.9888 27.6083 93.9555 28.225C92.9221 28.825 91.7555 29.125 90.4555 29.125ZM90.4555 27.225C91.3888 27.225 92.2138 27 92.9305 26.55C93.6638 26.1 94.2388 25.5 94.6555 24.75C95.0888 23.9833 95.3055 23.1167 95.3055 22.15C95.3055 21.2 95.0888 20.3417 94.6555 19.575C94.2388 18.8083 93.6638 18.2083 92.9305 17.775C92.2138 17.325 91.3888 17.1 90.4555 17.1C89.5388 17.1 88.7055 17.325 87.9555 17.775C87.2221 18.2083 86.6388 18.8083 86.2055 19.575C85.7721 20.3417 85.5555 21.2 85.5555 22.15C85.5555 23.1167 85.7721 23.9833 86.2055 24.75C86.6388 25.5 87.2221 26.1 87.9555 26.55C88.7055 27 89.5388 27.225 90.4555 27.225Z" fill="white"/>
<rect x="1" y="1" width="29" height="48" rx="4" stroke="white" stroke-width="2"/>
<path d="M42.035 49.629C41.9763 49.629 41.903 49.6107 41.815 49.574C41.5437 49.4493 41.4703 49.255 41.595 48.991L45.082 41.236C45.2067 40.9793 45.401 40.9097 45.665 41.027C45.9363 41.137 46.0133 41.3277 45.896 41.599L42.387 49.343C42.3137 49.5337 42.1963 49.629 42.035 49.629ZM43.278 46.791C43.1607 46.8497 43.0507 46.8607 42.948 46.824C42.8453 46.7873 42.761 46.7067 42.695 46.582L40.231 41.599C40.1723 41.4743 40.1613 41.3607 40.198 41.258C40.242 41.1553 40.3227 41.0747 40.44 41.016C40.5647 40.9647 40.6783 40.9573 40.781 40.994C40.8837 41.0307 40.9643 41.1077 41.023 41.225L43.432 46.219C43.4907 46.3363 43.509 46.45 43.487 46.56C43.4723 46.6627 43.4027 46.7397 43.278 46.791ZM49.7283 47.055C49.1343 47.055 48.6063 46.923 48.1443 46.659C47.6896 46.395 47.3303 46.032 47.0663 45.57C46.8023 45.108 46.6703 44.5837 46.6703 43.997C46.6703 43.403 46.8023 42.875 47.0663 42.413C47.3303 41.951 47.6896 41.588 48.1443 41.324C48.6063 41.06 49.1343 40.928 49.7283 40.928C50.315 40.928 50.8356 41.06 51.2903 41.324C51.745 41.588 52.1043 41.951 52.3683 42.413C52.6323 42.875 52.768 43.403 52.7753 43.997C52.7753 44.5837 52.6433 45.108 52.3793 45.57C52.1153 46.032 51.7523 46.395 51.2903 46.659C50.8356 46.923 50.315 47.055 49.7283 47.055ZM49.7283 46.219C50.139 46.219 50.5056 46.1237 50.8283 45.933C51.151 45.735 51.404 45.471 51.5873 45.141C51.7706 44.8037 51.8623 44.4223 51.8623 43.997C51.8623 43.5717 51.7706 43.1903 51.5873 42.853C51.404 42.5157 51.151 42.2517 50.8283 42.061C50.5056 41.863 50.139 41.764 49.7283 41.764C49.3176 41.764 48.9473 41.863 48.6173 42.061C48.2946 42.2517 48.038 42.5157 47.8473 42.853C47.664 43.1903 47.5723 43.5717 47.5723 43.997C47.5723 44.4223 47.664 44.8037 47.8473 45.141C48.038 45.471 48.2946 45.735 48.6173 45.933C48.9473 46.1237 49.3176 46.219 49.7283 46.219ZM57.2389 47.066C56.7182 47.066 56.2526 46.9597 55.8419 46.747C55.4386 46.527 55.1196 46.208 54.8849 45.79C54.6502 45.372 54.5329 44.8587 54.5329 44.25V41.445C54.5329 41.313 54.5769 41.203 54.6649 41.115C54.7529 41.027 54.8629 40.983 54.9949 40.983C55.1269 40.983 55.2369 41.027 55.3249 41.115C55.4129 41.203 55.4569 41.313 55.4569 41.445V44.25C55.4569 44.6973 55.5412 45.064 55.7099 45.35C55.8786 45.6287 56.1059 45.8413 56.3919 45.988C56.6779 46.1273 57.0006 46.197 57.3599 46.197C57.7046 46.197 58.0162 46.131 58.2949 45.999C58.5736 45.8597 58.7936 45.6763 58.9549 45.449C59.1162 45.2143 59.1969 44.9467 59.1969 44.646H59.8239C59.8092 45.108 59.6882 45.5223 59.4609 45.889C59.2336 46.2483 58.9256 46.5343 58.5369 46.747C58.1482 46.9597 57.7156 47.066 57.2389 47.066ZM59.6589 47C59.5196 47 59.4059 46.9597 59.3179 46.879C59.2372 46.791 59.1969 46.6737 59.1969 46.527V41.445C59.1969 41.3057 59.2372 41.1957 59.3179 41.115C59.4059 41.027 59.5196 40.983 59.6589 40.983C59.7982 40.983 59.9119 41.027 59.9999 41.115C60.0879 41.1957 60.1319 41.3057 60.1319 41.445V46.527C60.1319 46.6737 60.0879 46.791 59.9999 46.879C59.9119 46.9597 59.7982 47 59.6589 47ZM62.7357 43.271C62.7504 42.8237 62.864 42.424 63.0767 42.072C63.2967 41.7127 63.5827 41.4303 63.9347 41.225C64.294 41.0197 64.6864 40.917 65.1117 40.917C65.4857 40.917 65.768 40.972 65.9587 41.082C66.1567 41.192 66.23 41.3423 66.1787 41.533C66.1567 41.6357 66.109 41.709 66.0357 41.753C65.9697 41.797 65.889 41.819 65.7937 41.819C65.7057 41.819 65.603 41.8117 65.4857 41.797C65.053 41.7457 64.668 41.775 64.3307 41.885C64.0007 41.9877 63.7367 42.16 63.5387 42.402C63.3407 42.644 63.2417 42.9337 63.2417 43.271H62.7357ZM62.7907 47C62.644 47 62.5304 46.9597 62.4497 46.879C62.369 46.7983 62.3287 46.6847 62.3287 46.538V41.445C62.3287 41.2983 62.369 41.1847 62.4497 41.104C62.5304 41.0233 62.644 40.983 62.7907 40.983C62.9374 40.983 63.0474 41.0233 63.1207 41.104C63.2014 41.1847 63.2417 41.2983 63.2417 41.445V46.538C63.2417 46.6847 63.2014 46.7983 63.1207 46.879C63.0474 46.9597 62.9374 47 62.7907 47ZM73.8211 47.055C73.2418 47.055 72.7248 46.923 72.2701 46.659C71.8155 46.3877 71.4561 46.021 71.1921 45.559C70.9355 45.097 70.8071 44.5763 70.8071 43.997C70.8071 43.4103 70.9318 42.886 71.1811 42.424C71.4378 41.962 71.7825 41.599 72.2151 41.335C72.6551 41.0637 73.1611 40.928 73.7331 40.928C74.1731 40.928 74.5801 41.016 74.9541 41.192C75.3281 41.3607 75.6581 41.6173 75.9441 41.962C76.0321 42.0647 76.0615 42.171 76.0321 42.281C76.0101 42.3837 75.9441 42.4753 75.8341 42.556C75.7461 42.6147 75.6471 42.6367 75.5371 42.622C75.4345 42.6 75.3391 42.5413 75.2511 42.446C74.8478 41.9913 74.3418 41.764 73.7331 41.764C73.3298 41.764 72.9741 41.8593 72.6661 42.05C72.3655 42.2407 72.1308 42.5047 71.9621 42.842C71.7935 43.172 71.7091 43.557 71.7091 43.997C71.7091 44.4223 71.7971 44.8037 71.9731 45.141C72.1565 45.471 72.4058 45.735 72.7211 45.933C73.0438 46.1237 73.4105 46.219 73.8211 46.219C74.0998 46.219 74.3491 46.1823 74.5691 46.109C74.7965 46.0357 74.9981 45.922 75.1741 45.768C75.2768 45.6873 75.3795 45.6433 75.4821 45.636C75.5848 45.6287 75.6801 45.658 75.7681 45.724C75.8635 45.812 75.9185 45.911 75.9331 46.021C75.9478 46.131 75.9111 46.23 75.8231 46.318C75.2878 46.8093 74.6205 47.055 73.8211 47.055ZM80.5166 47.055C79.9593 47.055 79.4606 46.923 79.0206 46.659C78.5806 46.3877 78.2323 46.021 77.9756 45.559C77.7189 45.097 77.5906 44.5763 77.5906 43.997C77.5906 43.4103 77.7226 42.886 77.9866 42.424C78.2579 41.962 78.6246 41.599 79.0866 41.335C79.5486 41.0637 80.0693 40.928 80.6486 40.928C81.2206 40.928 81.7339 41.0637 82.1886 41.335C82.6506 41.599 83.0136 41.962 83.2776 42.424C83.5489 42.886 83.6883 43.4103 83.6956 43.997L83.3216 44.184C83.3216 44.7267 83.1969 45.2143 82.9476 45.647C82.7056 46.0797 82.3719 46.4243 81.9466 46.681C81.5286 46.9303 81.0519 47.055 80.5166 47.055ZM80.6486 46.219C81.0593 46.219 81.4223 46.1237 81.7376 45.933C82.0603 45.735 82.3133 45.4673 82.4966 45.13C82.6873 44.7927 82.7826 44.415 82.7826 43.997C82.7826 43.5717 82.6873 43.194 82.4966 42.864C82.3133 42.5267 82.0603 42.259 81.7376 42.061C81.4223 41.863 81.0593 41.764 80.6486 41.764C80.2453 41.764 79.8786 41.863 79.5486 42.061C79.2259 42.259 78.9693 42.5267 78.7786 42.864C78.5879 43.194 78.4926 43.5717 78.4926 43.997C78.4926 44.415 78.5879 44.7927 78.7786 45.13C78.9693 45.4673 79.2259 45.735 79.5486 45.933C79.8786 46.1237 80.2453 46.219 80.6486 46.219ZM83.2226 47C83.0906 47 82.9769 46.9597 82.8816 46.879C82.7936 46.791 82.7496 46.6773 82.7496 46.538V44.723L82.9586 43.766L83.6956 43.997V46.538C83.6956 46.6773 83.6516 46.791 83.5636 46.879C83.4756 46.9597 83.3619 47 83.2226 47ZM85.9702 43.271C85.9849 42.8237 86.0985 42.424 86.3112 42.072C86.5312 41.7127 86.8172 41.4303 87.1692 41.225C87.5285 41.0197 87.9209 40.917 88.3462 40.917C88.7202 40.917 89.0025 40.972 89.1932 41.082C89.3912 41.192 89.4645 41.3423 89.4132 41.533C89.3912 41.6357 89.3435 41.709 89.2702 41.753C89.2042 41.797 89.1235 41.819 89.0282 41.819C88.9402 41.819 88.8375 41.8117 88.7202 41.797C88.2875 41.7457 87.9025 41.775 87.5652 41.885C87.2352 41.9877 86.9712 42.16 86.7732 42.402C86.5752 42.644 86.4762 42.9337 86.4762 43.271H85.9702ZM86.0252 47C85.8785 47 85.7649 46.9597 85.6842 46.879C85.6035 46.7983 85.5632 46.6847 85.5632 46.538V41.445C85.5632 41.2983 85.6035 41.1847 85.6842 41.104C85.7649 41.0233 85.8785 40.983 86.0252 40.983C86.1719 40.983 86.2819 41.0233 86.3552 41.104C86.4359 41.1847 86.4762 41.2983 86.4762 41.445V46.538C86.4762 46.6847 86.4359 46.7983 86.3552 46.879C86.2819 46.9597 86.1719 47 86.0252 47ZM93.2165 47.055C92.6372 47.055 92.1165 46.923 91.6545 46.659C91.1925 46.3877 90.8259 46.021 90.5545 45.559C90.2905 45.097 90.1585 44.5727 90.1585 43.986C90.1585 43.4067 90.2869 42.886 90.5435 42.424C90.8002 41.962 91.1485 41.599 91.5885 41.335C92.0285 41.0637 92.5272 40.928 93.0845 40.928C93.5612 40.928 93.9902 41.0307 94.3715 41.236C94.7602 41.434 95.0755 41.698 95.3175 42.028V38.882C95.3175 38.7353 95.3615 38.6217 95.4495 38.541C95.5449 38.453 95.6585 38.409 95.7905 38.409C95.9299 38.409 96.0435 38.453 96.1315 38.541C96.2195 38.6217 96.2635 38.7353 96.2635 38.882V44.019C96.2489 44.591 96.1059 45.108 95.8345 45.57C95.5705 46.0247 95.2112 46.3877 94.7565 46.659C94.3019 46.923 93.7885 47.055 93.2165 47.055ZM93.2165 46.219C93.6272 46.219 93.9902 46.12 94.3055 45.922C94.6282 45.724 94.8812 45.46 95.0645 45.13C95.2552 44.7927 95.3505 44.4113 95.3505 43.986C95.3505 43.568 95.2552 43.1903 95.0645 42.853C94.8812 42.5157 94.6282 42.2517 94.3055 42.061C93.9902 41.863 93.6272 41.764 93.2165 41.764C92.8132 41.764 92.4465 41.863 92.1165 42.061C91.7939 42.2517 91.5372 42.5157 91.3465 42.853C91.1559 43.1903 91.0605 43.568 91.0605 43.986C91.0605 44.4113 91.1559 44.7927 91.3465 45.13C91.5372 45.46 91.7939 45.724 92.1165 45.922C92.4465 46.12 92.8132 46.219 93.2165 46.219Z" fill="white"/>
</svg>
