<svg width="88" height="88" viewBox="0 0 88 88" fill="none" xmlns="http://www.w3.org/2000/svg">
<path fill-rule="evenodd" clip-rule="evenodd" d="M40.702 69.3791L40.7215 69.3987C41.2333 69.7888 41.8578 70 42.4999 70C43.142 70 43.7665 69.7888 44.2783 69.3987L44.2978 69.3791L44.3446 69.3438C44.5959 69.1492 44.843 68.949 45.0856 68.7435C47.9935 66.2778 50.665 63.5431 53.065 60.5752C57.3589 55.2317 61.9999 47.4635 61.9999 38.6165C61.9999 33.4139 59.9454 28.4243 56.2885 24.7455C52.6315 21.0667 47.6716 19 42.4999 19C37.3282 19 32.3683 21.0667 28.7113 24.7455C25.0544 28.4243 22.9999 33.4139 22.9999 38.6165C22.9999 47.4635 27.6409 55.2317 31.9387 60.5752C34.3387 63.543 37.0102 66.2778 39.9181 68.7435C40.1611 68.947 40.4068 69.1471 40.6552 69.3438L40.702 69.3791ZM42.4999 44.5014C43.2681 44.5014 44.0288 44.3492 44.7386 44.0535C45.4484 43.7577 46.0933 43.3243 46.6365 42.7778C47.1797 42.2313 47.6106 41.5826 47.9046 40.8686C48.1986 40.1546 48.3499 39.3893 48.3499 38.6165C48.3499 37.8437 48.1986 37.0784 47.9046 36.3644C47.6106 35.6504 47.1797 35.0017 46.6365 34.4552C46.0933 33.9087 45.4484 33.4753 44.7386 33.1795C44.0288 32.8838 43.2681 32.7315 42.4999 32.7315C40.9484 32.7315 39.4604 33.3516 38.3633 34.4552C37.2662 35.5589 36.6499 37.0557 36.6499 38.6165C36.6499 40.1773 37.2662 41.6741 38.3633 42.7778C39.4604 43.8814 40.9484 44.5014 42.4999 44.5014Z" fill="#A60609"/>
<path d="M14.625 7.08337C12.6138 7.08337 10.685 7.88233 9.26286 9.30448C7.84071 10.7266 7.04175 12.6555 7.04175 14.6667V27.6667C7.04175 28.5286 6.69934 29.3553 6.08985 29.9648C5.48035 30.5743 4.6537 30.9167 3.79175 30.9167C2.9298 30.9167 2.10314 30.5743 1.49365 29.9648C0.884157 29.3553 0.541748 28.5286 0.541748 27.6667V14.6667C0.541748 10.9315 2.02552 7.34942 4.66666 4.70829C7.3078 2.06715 10.8899 0.583374 14.625 0.583374H27.625C28.487 0.583374 29.3136 0.925783 29.9231 1.53528C30.5326 2.14477 30.875 2.97142 30.875 3.83337C30.875 4.69533 30.5326 5.52198 29.9231 6.13147C29.3136 6.74096 28.487 7.08337 27.625 7.08337H14.625ZM14.625 80.75C12.6138 80.75 10.685 79.9511 9.26286 78.5289C7.84071 77.1067 7.04175 75.1779 7.04175 73.1667V60.1667C7.04175 59.3047 6.69934 58.4781 6.08985 57.8686C5.48035 57.2591 4.6537 56.9167 3.79175 56.9167C2.9298 56.9167 2.10314 57.2591 1.49365 57.8686C0.884157 58.4781 0.541748 59.3047 0.541748 60.1667V73.1667C0.541748 75.0161 0.906024 76.8475 1.61378 78.5561C2.32153 80.2648 3.3589 81.8173 4.66666 83.1251C5.97442 84.4329 7.52696 85.4702 9.23563 86.178C10.9443 86.8857 12.7756 87.25 14.625 87.25H27.625C28.487 87.25 29.3136 86.9076 29.9231 86.2981C30.5326 85.6886 30.875 84.862 30.875 84C30.875 83.1381 30.5326 82.3114 29.9231 81.7019C29.3136 81.0924 28.487 80.75 27.625 80.75H14.625ZM80.7084 14.6667C80.7084 12.6555 79.9094 10.7266 78.4873 9.30448C77.0651 7.88233 75.1363 7.08337 73.125 7.08337H60.125C59.2631 7.08337 58.4364 6.74096 57.8269 6.13147C57.2175 5.52198 56.875 4.69533 56.875 3.83337C56.875 2.97142 57.2175 2.14477 57.8269 1.53528C58.4364 0.925783 59.2631 0.583374 60.125 0.583374H73.125C74.9745 0.583374 76.8058 0.947649 78.5145 1.6554C80.2232 2.36316 81.7757 3.40053 83.0835 4.70829C84.3912 6.01604 85.4286 7.56858 86.1364 9.27725C86.8441 10.9859 87.2084 12.8172 87.2084 14.6667V27.6667C87.2084 28.5286 86.866 29.3553 86.2565 29.9648C85.647 30.5743 84.8203 30.9167 83.9584 30.9167C83.0964 30.9167 82.2698 30.5743 81.6603 29.9648C81.0508 29.3553 80.7084 28.5286 80.7084 27.6667V14.6667ZM73.125 80.75C75.1363 80.75 77.0651 79.9511 78.4873 78.5289C79.9094 77.1067 80.7084 75.1779 80.7084 73.1667V60.1667C80.7084 59.3047 81.0508 58.4781 81.6603 57.8686C82.2698 57.2591 83.0964 56.9167 83.9584 56.9167C84.8203 56.9167 85.647 57.2591 86.2565 57.8686C86.866 58.4781 87.2084 59.3047 87.2084 60.1667V73.1667C87.2084 75.0161 86.8441 76.8475 86.1364 78.5561C85.4286 80.2648 84.3912 81.8173 83.0835 83.1251C81.7757 84.4329 80.2232 85.4702 78.5145 86.178C76.8058 86.8857 74.9745 87.25 73.125 87.25H60.125C59.2631 87.25 58.4364 86.9076 57.8269 86.2981C57.2175 85.6886 56.875 84.862 56.875 84C56.875 83.1381 57.2175 82.3114 57.8269 81.7019C58.4364 81.0924 59.2631 80.75 60.125 80.75H73.125Z" fill="#A60609"/>
</svg>
