<svg width="87" height="87" viewBox="0 0 87 87" fill="none" xmlns="http://www.w3.org/2000/svg">
<path d="M31.2353 54.5502C38.6141 61.9279 47.6007 67.6216 54.9272 67.6216C58.2212 67.6216 61.1057 66.4724 63.4291 63.9191C64.782 62.4127 65.6251 60.6513 65.6251 58.9161C65.6251 57.6394 65.1393 56.414 63.9149 55.5458L56.1015 49.9796C54.9022 49.1626 53.9066 48.7541 52.9872 48.7541C51.813 48.7541 50.7912 49.4186 49.617 50.5667L47.8044 52.3542C47.5481 52.6134 47.1994 52.7603 46.8349 52.7627C46.4264 52.7627 46.0681 52.6102 45.7881 52.4817C44.2304 51.6396 41.5247 49.3162 38.9964 46.8141C36.4943 44.312 34.1709 41.6062 33.3539 40.0235C33.1776 39.7113 33.0814 39.3602 33.074 39.0017C33.074 38.6706 33.1753 38.3373 33.4563 38.0573L35.2427 36.1947C36.393 35.0193 37.0564 33.9976 37.0564 32.8233C37.0564 31.905 36.6479 30.9094 35.8059 29.709L30.3159 21.9729C29.4227 20.7475 28.1722 20.2116 26.7932 20.2116C25.108 20.2116 23.3467 20.9773 21.8663 22.4337C19.3893 24.8083 18.2913 27.7429 18.2913 30.9846C18.2913 38.3122 23.8826 47.1975 31.2353 54.5502Z" fill="#A60609"/>
<path d="M14.0833 6.5C12.0721 6.5 10.1433 7.29896 8.72111 8.72111C7.29896 10.1433 6.5 12.0722 6.5 14.0834V27.0834C6.5 27.9453 6.15759 28.772 5.5481 29.3815C4.9386 29.991 4.11195 30.3334 3.25 30.3334C2.38805 30.3334 1.56139 29.991 0.951901 29.3815C0.342409 28.772 0 27.9453 0 27.0834V14.0834C0 10.3482 1.48377 6.76605 4.12491 4.12492C6.76605 1.48378 10.3482 0 14.0833 0H27.0833C27.9453 0 28.7719 0.342409 29.3814 0.951906C29.9909 1.5614 30.3333 2.38805 30.3333 3.25C30.3333 4.11196 29.9909 4.93861 29.3814 5.5481C28.7719 6.15759 27.9453 6.5 27.0833 6.5H14.0833ZM14.0833 80.1667C12.0721 80.1667 10.1433 79.3678 8.72111 77.9456C7.29896 76.5234 6.5 74.5946 6.5 72.5834V59.5834C6.5 58.7214 6.15759 57.8948 5.5481 57.2853C4.9386 56.6758 4.11195 56.3334 3.25 56.3334C2.38805 56.3334 1.56139 56.6758 0.951901 57.2853C0.342409 57.8948 0 58.7214 0 59.5834V72.5834C0 74.4328 0.364276 76.2642 1.07203 77.9728C1.77978 79.6815 2.81715 81.234 4.12491 82.5418C5.43267 83.8496 6.98521 84.8869 8.69388 85.5947C10.4026 86.3024 12.2339 86.6667 14.0833 86.6667H27.0833C27.9453 86.6667 28.7719 86.3243 29.3814 85.7148C29.9909 85.1053 30.3333 84.2787 30.3333 83.4167C30.3333 82.5548 29.9909 81.7281 29.3814 81.1186C28.7719 80.5091 27.9453 80.1667 27.0833 80.1667H14.0833ZM80.1667 14.0834C80.1667 12.0722 79.3677 10.1433 77.9456 8.72111C76.5234 7.29896 74.5946 6.5 72.5833 6.5H59.5833C58.7214 6.5 57.8947 6.15759 57.2852 5.5481C56.6758 4.93861 56.3333 4.11196 56.3333 3.25C56.3333 2.38805 56.6758 1.5614 57.2852 0.951906C57.8947 0.342409 58.7214 0 59.5833 0H72.5833C74.4328 0 76.2641 0.364275 77.9728 1.07203C79.6815 1.77979 81.234 2.81716 82.5418 4.12492C83.8495 5.43267 84.8869 6.98521 85.5947 8.69388C86.3024 10.4026 86.6667 12.2339 86.6667 14.0834V27.0834C86.6667 27.9453 86.3243 28.772 85.7148 29.3815C85.1053 29.991 84.2786 30.3334 83.4167 30.3334C82.5547 30.3334 81.7281 29.991 81.1186 29.3815C80.5091 28.772 80.1667 27.9453 80.1667 27.0834V14.0834ZM72.5833 80.1667C74.5946 80.1667 76.5234 79.3678 77.9456 77.9456C79.3677 76.5234 80.1667 74.5946 80.1667 72.5834V59.5834C80.1667 58.7214 80.5091 57.8948 81.1186 57.2853C81.7281 56.6758 82.5547 56.3334 83.4167 56.3334C84.2786 56.3334 85.1053 56.6758 85.7148 57.2853C86.3243 57.8948 86.6667 58.7214 86.6667 59.5834V72.5834C86.6667 74.4328 86.3024 76.2642 85.5947 77.9728C84.8869 79.6815 83.8495 81.234 82.5418 82.5418C81.234 83.8496 79.6815 84.8869 77.9728 85.5947C76.2641 86.3024 74.4328 86.6667 72.5833 86.6667H59.5833C58.7214 86.6667 57.8947 86.3243 57.2852 85.7148C56.6758 85.1053 56.3333 84.2787 56.3333 83.4167C56.3333 82.5548 56.6758 81.7281 57.2852 81.1186C57.8947 80.5091 58.7214 80.1667 59.5833 80.1667H72.5833Z" fill="#A60609"/>
</svg>
