<svg width="88" height="88" viewBox="0 0 88 88" fill="none" xmlns="http://www.w3.org/2000/svg">
<path d="M14.7501 7.16662C12.7389 7.16662 10.81 7.96558 9.38786 9.38773C7.9657 10.8099 7.16675 12.7388 7.16675 14.75V27.75C7.16675 28.612 6.82434 29.4386 6.21485 30.0481C5.60535 30.6576 4.7787 31 3.91675 31C3.05479 31 2.22814 30.6576 1.61865 30.0481C1.00916 29.4386 0.666748 28.612 0.666748 27.75V14.75C0.666748 11.0149 2.15052 7.43267 4.79166 4.79153C7.4328 2.1504 11.0149 0.666626 14.7501 0.666626H27.7501C28.612 0.666626 29.4387 1.00903 30.0482 1.61852C30.6577 2.22802 31.0001 3.05467 31.0001 3.91662C31.0001 4.77858 30.6577 5.60523 30.0482 6.21472C29.4387 6.82421 28.612 7.16662 27.7501 7.16662H14.7501ZM14.7501 80.8333C12.7389 80.8333 10.81 80.0344 9.38786 78.6122C7.9657 77.1901 7.16675 75.2612 7.16675 73.25V60.25C7.16675 59.3881 6.82434 58.5614 6.21485 57.9519C5.60535 57.3424 4.7787 57 3.91675 57C3.05479 57 2.22814 57.3424 1.61865 57.9519C1.00916 58.5614 0.666748 59.3881 0.666748 60.25V73.25C0.666748 75.0995 1.03102 76.9308 1.73878 78.6395C2.44653 80.3481 3.4839 81.9007 4.79166 83.2084C6.09942 84.5162 7.65196 85.5536 9.36062 86.2613C11.0693 86.9691 12.9006 87.3333 14.7501 87.3333H27.7501C28.612 87.3333 29.4387 86.9909 30.0482 86.3814C30.6577 85.7719 31.0001 84.9453 31.0001 84.0833C31.0001 83.2214 30.6577 82.3947 30.0482 81.7852C29.4387 81.1757 28.612 80.8333 27.7501 80.8333H14.7501ZM80.8334 14.75C80.8334 12.7388 80.0345 10.8099 78.6123 9.38773C77.1902 7.96558 75.2613 7.16662 73.2501 7.16662H60.2501C59.3881 7.16662 58.5615 6.82421 57.952 6.21472C57.3425 5.60523 57.0001 4.77858 57.0001 3.91662C57.0001 3.05467 57.3425 2.22802 57.952 1.61852C58.5615 1.00903 59.3881 0.666626 60.2501 0.666626H73.2501C75.0995 0.666626 76.9309 1.0309 78.6395 1.73865C80.3482 2.44641 81.9007 3.48378 83.2085 4.79153C84.5163 6.09929 85.5536 7.65183 86.2614 9.3605C86.9691 11.0692 87.3334 12.9006 87.3334 14.75V27.75C87.3334 28.612 86.991 29.4386 86.3815 30.0481C85.772 30.6576 84.9454 31 84.0834 31C83.2215 31 82.3948 30.6576 81.7853 30.0481C81.1758 29.4386 80.8334 28.612 80.8334 27.75V14.75ZM73.2501 80.8333C75.2613 80.8333 77.1902 80.0344 78.6123 78.6122C80.0345 77.1901 80.8334 75.2612 80.8334 73.25V60.25C80.8334 59.3881 81.1758 58.5614 81.7853 57.9519C82.3948 57.3424 83.2215 57 84.0834 57C84.9454 57 85.772 57.3424 86.3815 57.9519C86.991 58.5614 87.3334 59.3881 87.3334 60.25V73.25C87.3334 75.0995 86.9691 76.9308 86.2614 78.6395C85.5536 80.3481 84.5163 81.9007 83.2085 83.2084C81.9007 84.5162 80.3482 85.5536 78.6395 86.2613C76.9309 86.9691 75.0995 87.3333 73.2501 87.3333H60.2501C59.3881 87.3333 58.5615 86.9909 57.952 86.3814C57.3425 85.7719 57.0001 84.9453 57.0001 84.0833C57.0001 83.2214 57.3425 82.3947 57.952 81.7852C58.5615 81.1757 59.3881 80.8333 60.2501 80.8333H73.2501ZM22.3334 22.3333H35.3334V35.3333H22.3334V22.3333ZM52.6667 35.3333H35.3334V52.6667H22.3334V65.6667H35.3334V52.6667H52.6667V65.6667H65.6668V52.6667H52.6667V35.3333ZM52.6667 35.3333V22.3333H65.6668V35.3333H52.6667Z" fill="#A60609"/>
</svg>
