<?xml version="1.0" encoding="utf-8"?>
<!-- Generator: Adobe Illustrator 27.2.0, SVG Export Plug-In . SVG Version: 6.00 Build 0)  -->
<svg version="1.1" id="Layer_1" xmlns="http://www.w3.org/2000/svg" xmlns:xlink="http://www.w3.org/1999/xlink" x="0px" y="0px"
	 viewBox="0 0 512 512" style="enable-background:new 0 0 512 512;" xml:space="preserve">
<style type="text/css">
	.st0{fill:#212121;}
</style>
<g>
	<path class="st0" d="M0,99.56C0,44.57,44.57,0,99.56,0h53.01c15.71,0,28.44,12.74,28.44,28.44s-12.74,28.44-28.44,28.44H99.56
		c-23.56,0-42.67,19.1-42.67,42.67v53.01c0,15.71-12.74,28.44-28.44,28.44S0,168.28,0,152.57V99.56z M330.99,28.44
		C330.99,12.74,343.73,0,359.43,0h53.01C467.43,0,512,44.57,512,99.56v53.01c0,15.71-12.73,28.44-28.44,28.44
		c-15.71,0-28.44-12.74-28.44-28.44V99.56c0-23.56-19.1-42.67-42.67-42.67h-53.01C343.73,56.89,330.99,44.15,330.99,28.44z
		 M28.44,330.99c15.71,0,28.44,12.73,28.44,28.44v53.01c0,23.56,19.1,42.67,42.67,42.67h53.01c15.71,0,28.44,12.74,28.44,28.44
		c0,15.71-12.74,28.44-28.44,28.44H99.56C44.57,512,0,467.43,0,412.44v-53.01C0,343.73,12.74,330.99,28.44,330.99z M483.56,330.99
		c15.71,0,28.44,12.73,28.44,28.44v53.01c0,54.98-44.57,99.56-99.56,99.56h-53.01c-15.71,0-28.44-12.73-28.44-28.44
		c0-15.71,12.74-28.44,28.44-28.44h53.01c23.56,0,42.67-19.1,42.67-42.67v-53.01C455.11,343.73,467.85,330.99,483.56,330.99z
		 M199.11,113.78h-85.33v85.33h85.33v113.78h-85.33v85.33h85.33v-85.33h113.78v85.33h85.33v-85.33h-85.33V199.11h85.33v-85.33
		h-85.33v85.33H199.11V113.78z"/>
</g>
</svg>
