<svg width="93" height="37" viewBox="0 0 93 37" fill="none" xmlns="http://www.w3.org/2000/svg">
<path d="M30.4732 17.8796C30.48 17.7436 30.48 17.6007 30.48 17.4579C30.48 9.48771 24.0398 3.0272 16.0764 3V17.8796H30.4732Z" fill="#FBB600"/>
<path d="M0 19.2687C0.278822 26.9873 6.61012 33.1622 14.3899 33.1962V19.2687H0Z" fill="#FF953E"/>
<path d="M0 17.7454C0.278822 10.02 6.61012 3.84507 14.3899 3.81787V17.7454H0Z" fill="#DB3348"/>
<path d="M30.4324 19.7881H16.1241L26.0121 29.6761C28.6235 27.1599 30.2964 23.6713 30.4324 19.7881Z" fill="#00D3B4"/>
<path d="M15.8725 36.1323C19.7012 36.1187 23.1763 34.6157 25.7537 32.1744L15.8725 22.2864V36.1323Z" fill="#57AFC4"/>
<path d="M41.2472 25H37.4688L42.3764 10.4545H47.0568L51.9645 25H48.1861L44.7699 14.1193H44.6562L41.2472 25ZM40.7429 19.2756H48.6406V21.946H40.7429V19.2756Z" fill="#01D904"/>
<path d="M26.4034 10.4545L29.6562 21.108H29.777L33.0298 10.4545H36.9645L32.0568 25H27.3764L22.4688 10.4545H26.4034Z" fill="#C63999"/>
<path d="M82.2472 25H78.4688L83.3764 10.4545H88.0568L92.9645 25H89.1861L85.7699 14.1193H85.6562L82.2472 25ZM81.7429 19.2756H89.6406V21.946H81.7429V19.2756Z" fill="#01D904"/>
<path d="M53.1009 25V10.4545H59.1094C60.1984 10.4545 61.1383 10.651 61.929 11.044C62.7244 11.4323 63.3376 11.991 63.7685 12.7202C64.1993 13.4446 64.4148 14.304 64.4148 15.2983C64.4148 16.3068 64.1946 17.1638 63.7543 17.8693C63.3139 18.5701 62.6889 19.1051 61.8793 19.4744C61.0696 19.839 60.1108 20.0213 59.0028 20.0213H55.2031V17.2514H58.3494C58.8797 17.2514 59.3224 17.1828 59.6776 17.0455C60.0374 16.9034 60.3097 16.6903 60.4943 16.4062C60.679 16.1174 60.7713 15.7481 60.7713 15.2983C60.7713 14.8485 60.679 14.4768 60.4943 14.1832C60.3097 13.8849 60.0374 13.6624 59.6776 13.5156C59.3177 13.3641 58.875 13.2884 58.3494 13.2884H56.6165V25H53.1009ZM61.2898 18.3523L64.9119 25H61.0767L57.5256 18.3523H61.2898Z" fill="#FBB600"/>
<path d="M78.4801 10.4545V25H75.4972L69.7088 16.6051H69.6165V25H66.1009V10.4545H69.1264L74.8509 18.8352H74.9716V10.4545H78.4801Z" fill="#C63999"/>
<path d="M47.328 4.726V4.792C47.744 4.828 48.068 4.928 48.3 5.092C48.532 5.252 48.648 5.474 48.648 5.758C48.648 5.998 48.596 6.2 48.492 6.364C48.392 6.524 48.256 6.652 48.084 6.748C47.916 6.844 47.726 6.912 47.514 6.952C47.306 6.992 47.092 7.012 46.872 7.012H45.408V6.916C45.52 6.844 45.584 6.778 45.6 6.718C45.616 6.658 45.624 6.584 45.624 6.496V3.604C45.624 3.52 45.624 3.448 45.624 3.388C45.628 3.328 45.616 3.274 45.588 3.226C45.564 3.178 45.51 3.132 45.426 3.088C45.342 3.04 45.214 2.992 45.042 2.944V2.818L45.078 2.782H46.926C47.434 2.782 47.824 2.856 48.096 3.004C48.368 3.152 48.504 3.384 48.504 3.7C48.504 3.9 48.444 4.07 48.324 4.21C48.204 4.35 48.054 4.462 47.874 4.546C47.694 4.626 47.512 4.686 47.328 4.726ZM46.374 4.69C46.806 4.69 47.132 4.608 47.352 4.444C47.576 4.276 47.688 4.044 47.688 3.748C47.688 3.556 47.64 3.41 47.544 3.31C47.452 3.206 47.33 3.134 47.178 3.094C47.03 3.054 46.87 3.034 46.698 3.034C46.614 3.034 46.532 3.044 46.452 3.064C46.412 3.076 46.388 3.108 46.38 3.16C46.376 3.212 46.374 3.284 46.374 3.376V4.69ZM46.374 6.298C46.374 6.446 46.384 6.56 46.404 6.64C46.424 6.72 46.496 6.76 46.62 6.76C46.844 6.76 47.042 6.72 47.214 6.64C47.39 6.556 47.528 6.438 47.628 6.286C47.728 6.134 47.778 5.954 47.778 5.746C47.778 5.638 47.752 5.536 47.7 5.44C47.652 5.344 47.586 5.256 47.502 5.176C47.422 5.1 47.318 5.046 47.19 5.014C47.062 4.978 46.926 4.954 46.782 4.942C46.638 4.93 46.502 4.922 46.374 4.918V6.298ZM54.2973 2.974L55.1373 2.698L55.2273 2.746C55.2033 2.858 55.1833 2.976 55.1673 3.1C55.1513 3.22 55.1393 3.342 55.1313 3.466C55.1153 3.878 55.1053 4.29 55.1013 4.702C55.0973 5.11 55.0953 5.516 55.0953 5.92C55.0953 6.056 55.0973 6.178 55.1013 6.286C55.1093 6.39 55.1413 6.472 55.1973 6.532C55.2533 6.592 55.3573 6.622 55.5093 6.622C55.5653 6.622 55.6233 6.62 55.6833 6.616C55.7433 6.608 55.7993 6.602 55.8513 6.598L55.8573 6.706L55.8093 6.766L54.8673 7.03C54.8273 7.042 54.7873 7.05 54.7473 7.054C54.7073 7.058 54.6673 7.06 54.6273 7.06C54.5313 7.06 54.4633 7.03 54.4233 6.97C54.3833 6.906 54.3533 6.838 54.3333 6.766L54.2673 6.736C54.0593 6.82 53.8433 6.894 53.6193 6.958C53.3993 7.018 53.1773 7.048 52.9533 7.048C52.7813 7.048 52.6093 7.03 52.4373 6.994C52.2653 6.958 52.1173 6.884 51.9933 6.772C51.8813 6.668 51.7953 6.542 51.7353 6.394C51.6753 6.242 51.6353 6.082 51.6153 5.914C51.5953 5.746 51.5853 5.588 51.5853 5.44C51.5853 5.216 51.5913 4.962 51.6033 4.678C51.6193 4.394 51.6273 4.12 51.6273 3.856C51.6273 3.744 51.6253 3.646 51.6213 3.562C51.6213 3.478 51.6153 3.38 51.6033 3.268C51.5913 3.196 51.5513 3.142 51.4833 3.106C51.4153 3.066 51.3373 3.038 51.2493 3.022C51.1613 3.006 51.0793 2.992 51.0033 2.98V2.824L51.0333 2.776H52.4073L52.4673 2.842C52.4193 3.242 52.3873 3.638 52.3713 4.03C52.3553 4.418 52.3473 4.814 52.3473 5.218C52.3473 5.734 52.4533 6.108 52.6653 6.34C52.8813 6.568 53.1713 6.682 53.5353 6.682C53.6753 6.682 53.8133 6.66 53.9493 6.616C54.0893 6.572 54.2193 6.524 54.3393 6.472C54.3393 6.18 54.3393 5.866 54.3393 5.53C54.3393 5.194 54.3373 4.862 54.3333 4.534C54.3333 4.206 54.3293 3.906 54.3213 3.634C54.3173 3.362 54.3093 3.142 54.2973 2.974ZM60.5868 3.712L60.4848 3.682C60.4688 3.55 60.4268 3.424 60.3588 3.304C60.2948 3.18 60.2068 3.08 60.0948 3.004C59.9828 2.928 59.8448 2.89 59.6808 2.89C59.4888 2.89 59.3368 2.95 59.2248 3.07C59.1128 3.19 59.0568 3.332 59.0568 3.496C59.0568 3.668 59.1048 3.816 59.2008 3.94C59.2968 4.06 59.4168 4.166 59.5608 4.258C59.7048 4.346 59.8508 4.428 59.9988 4.504C60.2348 4.624 60.4368 4.742 60.6048 4.858C60.7768 4.97 60.9088 5.094 61.0008 5.23C61.0968 5.366 61.1448 5.53 61.1448 5.722C61.1448 5.926 61.0888 6.112 60.9768 6.28C60.8688 6.448 60.7228 6.592 60.5388 6.712C60.3588 6.832 60.1608 6.924 59.9448 6.988C59.7328 7.052 59.5208 7.084 59.3088 7.084C59.0648 7.084 58.8368 7.032 58.6248 6.928C58.4128 6.824 58.2368 6.674 58.0968 6.478L58.6788 5.824L58.7928 5.866C58.7928 6.014 58.8268 6.16 58.8948 6.304C58.9628 6.444 59.0608 6.56 59.1888 6.652C59.3208 6.744 59.4748 6.79 59.6508 6.79C59.7948 6.79 59.9248 6.756 60.0408 6.688C60.1568 6.616 60.2488 6.524 60.3168 6.412C60.3848 6.296 60.4188 6.176 60.4188 6.052C60.4188 5.936 60.3868 5.832 60.3228 5.74C60.2588 5.644 60.1828 5.556 60.0948 5.476C60.0068 5.396 59.8928 5.318 59.7528 5.242C59.6128 5.166 59.4648 5.086 59.3088 5.002C59.1528 4.914 59.0048 4.818 58.8648 4.714C58.7248 4.606 58.6108 4.484 58.5228 4.348C58.4348 4.212 58.3908 4.056 58.3908 3.88C58.3908 3.664 58.4348 3.478 58.5228 3.322C58.6108 3.166 58.7288 3.04 58.8768 2.944C59.0248 2.848 59.1908 2.778 59.3748 2.734C59.5628 2.686 59.7548 2.662 59.9508 2.662C60.2588 2.662 60.5128 2.708 60.7128 2.8C60.9168 2.888 61.0648 3.044 61.1568 3.268L60.5868 3.712ZM64.9045 3.292L64.8985 4.798C64.8985 4.97 64.8985 5.158 64.8985 5.362C64.8985 5.566 64.9005 5.758 64.9045 5.938C64.9085 6.118 64.9125 6.26 64.9165 6.364C64.9245 6.44 64.9465 6.516 64.9825 6.592C65.0225 6.668 65.0865 6.716 65.1745 6.736L65.5585 6.82V6.994H63.5245V6.826L63.9685 6.73C64.0165 6.722 64.0565 6.696 64.0885 6.652C64.1205 6.608 64.1365 6.562 64.1365 6.514C64.1405 6.45 64.1425 6.352 64.1425 6.22C64.1465 6.084 64.1485 5.932 64.1485 5.764C64.1485 5.592 64.1485 5.42 64.1485 5.248C64.1485 5.072 64.1485 4.912 64.1485 4.768C64.1485 4.52 64.1465 4.27 64.1425 4.018C64.1425 3.762 64.1325 3.512 64.1125 3.268C64.1085 3.228 64.0905 3.192 64.0585 3.16C64.0265 3.124 63.9885 3.102 63.9445 3.094L63.5305 3.004V2.848L63.5545 2.824H65.4925L65.5165 2.848V3.01L65.0485 3.106C65.0005 3.114 64.9645 3.136 64.9405 3.172C64.9165 3.208 64.9045 3.248 64.9045 3.292ZM67.7739 2.854L67.8219 2.806H69.0159C69.4199 3.31 69.8399 3.806 70.2759 4.294C70.7159 4.778 71.1599 5.258 71.6079 5.734V2.884L72.0939 2.722L72.2139 2.806C72.1659 3.342 72.1259 3.878 72.0939 4.414C72.0619 4.95 72.0459 5.486 72.0459 6.022C72.0459 6.182 72.0479 6.342 72.0519 6.502C72.0559 6.658 72.0639 6.814 72.0759 6.97H71.6259L68.8479 3.88V6.796L68.3559 7.018L68.2779 6.97C68.3099 6.41 68.3359 5.852 68.3559 5.296C68.3799 4.74 68.3919 4.184 68.3919 3.628C68.3919 3.496 68.3819 3.392 68.3619 3.316C68.3419 3.252 68.2959 3.198 68.2239 3.154C68.1519 3.11 68.0739 3.076 67.9899 3.052C67.9059 3.024 67.8339 3.002 67.7739 2.986V2.854ZM78.2296 6.544L78.2896 6.592L78.1336 7.048C77.7936 7.028 77.4516 7.014 77.1076 7.006C76.7676 7.002 76.4256 7 76.0816 7C75.9856 7 75.8776 7 75.7576 7C75.6376 6.996 75.5556 6.988 75.5116 6.976C75.4676 6.952 75.4236 6.914 75.3796 6.862C75.3356 6.806 75.3136 6.75 75.3136 6.694V4.12C75.3136 4.032 75.3136 3.934 75.3136 3.826C75.3136 3.714 75.3116 3.612 75.3076 3.52C75.3036 3.428 75.2976 3.364 75.2896 3.328C75.2656 3.236 75.2216 3.17 75.1576 3.13C75.0976 3.086 75.0276 3.056 74.9476 3.04C74.8716 3.024 74.7976 3.012 74.7256 3.004V2.866L74.7676 2.824C75.0076 2.824 75.2596 2.824 75.5236 2.824C75.7876 2.824 76.0496 2.822 76.3096 2.818C76.5696 2.81 76.8136 2.802 77.0416 2.794C77.2696 2.782 77.4676 2.766 77.6356 2.746L77.7136 2.776V3.148L77.6416 3.214C77.5256 3.206 77.3896 3.198 77.2336 3.19C77.0816 3.178 76.9316 3.168 76.7836 3.16C76.6396 3.152 76.5176 3.146 76.4176 3.142C76.3216 3.134 76.2736 3.13 76.2736 3.13C76.1656 3.13 76.1036 3.16 76.0876 3.22C76.0716 3.28 76.0636 3.35 76.0636 3.43V4.51C76.0636 4.538 76.0736 4.572 76.0936 4.612C76.1176 4.648 76.1476 4.666 76.1836 4.666C76.2756 4.666 76.3936 4.662 76.5376 4.654C76.6856 4.642 76.8316 4.63 76.9756 4.618C77.1236 4.606 77.2476 4.594 77.3476 4.582C77.4476 4.57 77.4996 4.564 77.5036 4.564C77.5076 4.564 77.5176 4.57 77.5336 4.582C77.5536 4.594 77.5696 4.604 77.5816 4.612V4.96C77.3736 4.952 77.1536 4.948 76.9216 4.948C76.6896 4.944 76.4596 4.942 76.2316 4.942C76.1636 4.942 76.1176 4.958 76.0936 4.99C76.0736 5.022 76.0636 5.06 76.0636 5.104C76.0636 5.3 76.0656 5.504 76.0696 5.716C76.0736 5.928 76.0896 6.11 76.1176 6.262C76.1496 6.51 76.2836 6.634 76.5196 6.634C76.5356 6.634 76.5996 6.632 76.7116 6.628C76.8276 6.62 76.9696 6.612 77.1376 6.604C77.3096 6.592 77.4916 6.582 77.6836 6.574C77.8756 6.562 78.0576 6.552 78.2296 6.544ZM83.0376 3.712L82.9356 3.682C82.9196 3.55 82.8776 3.424 82.8096 3.304C82.7456 3.18 82.6576 3.08 82.5456 3.004C82.4336 2.928 82.2956 2.89 82.1316 2.89C81.9396 2.89 81.7876 2.95 81.6756 3.07C81.5636 3.19 81.5076 3.332 81.5076 3.496C81.5076 3.668 81.5556 3.816 81.6516 3.94C81.7476 4.06 81.8676 4.166 82.0116 4.258C82.1556 4.346 82.3016 4.428 82.4496 4.504C82.6856 4.624 82.8876 4.742 83.0556 4.858C83.2276 4.97 83.3596 5.094 83.4516 5.23C83.5476 5.366 83.5956 5.53 83.5956 5.722C83.5956 5.926 83.5396 6.112 83.4276 6.28C83.3196 6.448 83.1736 6.592 82.9896 6.712C82.8096 6.832 82.6116 6.924 82.3956 6.988C82.1836 7.052 81.9716 7.084 81.7596 7.084C81.5156 7.084 81.2876 7.032 81.0756 6.928C80.8636 6.824 80.6876 6.674 80.5476 6.478L81.1296 5.824L81.2436 5.866C81.2436 6.014 81.2776 6.16 81.3456 6.304C81.4136 6.444 81.5116 6.56 81.6396 6.652C81.7716 6.744 81.9256 6.79 82.1016 6.79C82.2456 6.79 82.3756 6.756 82.4916 6.688C82.6076 6.616 82.6996 6.524 82.7676 6.412C82.8356 6.296 82.8696 6.176 82.8696 6.052C82.8696 5.936 82.8376 5.832 82.7736 5.74C82.7096 5.644 82.6336 5.556 82.5456 5.476C82.4576 5.396 82.3436 5.318 82.2036 5.242C82.0636 5.166 81.9156 5.086 81.7596 5.002C81.6036 4.914 81.4556 4.818 81.3156 4.714C81.1756 4.606 81.0616 4.484 80.9736 4.348C80.8856 4.212 80.8416 4.056 80.8416 3.88C80.8416 3.664 80.8856 3.478 80.9736 3.322C81.0616 3.166 81.1796 3.04 81.3276 2.944C81.4756 2.848 81.6416 2.778 81.8256 2.734C82.0136 2.686 82.2056 2.662 82.4016 2.662C82.7096 2.662 82.9636 2.708 83.1636 2.8C83.3676 2.888 83.5156 3.044 83.6076 3.268L83.0376 3.712ZM88.4833 3.712L88.3813 3.682C88.3653 3.55 88.3233 3.424 88.2553 3.304C88.1913 3.18 88.1033 3.08 87.9913 3.004C87.8793 2.928 87.7413 2.89 87.5773 2.89C87.3853 2.89 87.2333 2.95 87.1213 3.07C87.0093 3.19 86.9533 3.332 86.9533 3.496C86.9533 3.668 87.0013 3.816 87.0973 3.94C87.1933 4.06 87.3133 4.166 87.4573 4.258C87.6013 4.346 87.7473 4.428 87.8953 4.504C88.1313 4.624 88.3333 4.742 88.5013 4.858C88.6733 4.97 88.8053 5.094 88.8973 5.23C88.9933 5.366 89.0413 5.53 89.0413 5.722C89.0413 5.926 88.9853 6.112 88.8733 6.28C88.7653 6.448 88.6193 6.592 88.4353 6.712C88.2553 6.832 88.0573 6.924 87.8413 6.988C87.6293 7.052 87.4173 7.084 87.2053 7.084C86.9613 7.084 86.7333 7.032 86.5213 6.928C86.3093 6.824 86.1333 6.674 85.9933 6.478L86.5753 5.824L86.6893 5.866C86.6893 6.014 86.7233 6.16 86.7913 6.304C86.8593 6.444 86.9573 6.56 87.0853 6.652C87.2173 6.744 87.3713 6.79 87.5473 6.79C87.6913 6.79 87.8213 6.756 87.9373 6.688C88.0533 6.616 88.1453 6.524 88.2133 6.412C88.2813 6.296 88.3153 6.176 88.3153 6.052C88.3153 5.936 88.2833 5.832 88.2193 5.74C88.1553 5.644 88.0793 5.556 87.9913 5.476C87.9033 5.396 87.7893 5.318 87.6493 5.242C87.5093 5.166 87.3613 5.086 87.2053 5.002C87.0493 4.914 86.9013 4.818 86.7613 4.714C86.6213 4.606 86.5073 4.484 86.4193 4.348C86.3313 4.212 86.2873 4.056 86.2873 3.88C86.2873 3.664 86.3313 3.478 86.4193 3.322C86.5073 3.166 86.6253 3.04 86.7733 2.944C86.9213 2.848 87.0873 2.778 87.2713 2.734C87.4593 2.686 87.6513 2.662 87.8473 2.662C88.1553 2.662 88.4093 2.708 88.6093 2.8C88.8133 2.888 88.9613 3.044 89.0533 3.268L88.4833 3.712Z" fill="white"/>
</svg>
