<svg width="32" height="33" viewBox="0 0 32 33" fill="none" xmlns="http://www.w3.org/2000/svg">
<path fill-rule="evenodd" clip-rule="evenodd" d="M12.8206 0.910156C6.19314 0.910156 0.820557 6.28273 0.820557 12.9101V20.0892C0.820557 22.5875 1.58405 24.9076 2.89044 26.8287L1.00007 32.4998L6.20061 30.0995C8.09809 31.3569 10.3738 32.0892 12.8206 32.0892H19.9996C26.627 32.0892 31.9996 26.7166 31.9996 20.0892V12.9102C31.9996 6.28274 26.627 0.910156 19.9996 0.910156H12.8206Z" fill="url(#paint0_linear_1081_54)"/>
<path d="M17.221 10.2287C17.2826 10.2332 17.3396 10.2377 17.3877 10.2445C20.7696 10.7649 22.325 12.3668 22.7553 15.775C22.7628 15.8328 22.7643 15.9034 22.7651 15.9778C22.7696 16.2444 22.7786 16.7987 23.3734 16.8099H23.3914C23.5784 16.8099 23.7264 16.7536 23.833 16.6424C24.0178 16.4494 24.0058 16.1618 23.9945 15.9305C23.9922 15.8734 23.99 15.8201 23.99 15.7728C24.0335 12.288 21.0159 9.12692 17.5342 9.00976C17.5191 9.00976 17.5056 9.00976 17.4921 9.01202C17.4784 9.01375 17.4646 9.0145 17.4508 9.01427C17.4155 9.01427 17.3734 9.01127 17.3276 9.00826C17.2736 9.00451 17.2112 9 17.1474 9C16.5931 9 16.488 9.39429 16.4745 9.62936C16.4437 10.1724 16.9686 10.2107 17.221 10.2287ZM22.5923 20.1798C22.5198 20.1246 22.4479 20.0685 22.3768 20.0115C22.0073 19.7141 21.6145 19.4408 21.2352 19.1757L20.9986 19.0104C20.512 18.6687 20.0749 18.5027 19.6618 18.5027C19.1046 18.5027 18.6194 18.8107 18.2183 19.4167C18.0411 19.6856 17.8256 19.8163 17.5604 19.8163C17.3763 19.8098 17.1956 19.7645 17.0302 19.6833C15.4606 18.9714 14.3385 17.8794 13.6972 16.4382C13.387 15.7412 13.4876 15.2861 14.0329 14.9151C14.3431 14.7048 14.9191 14.3135 14.8793 13.5632C14.8327 12.7123 12.9544 10.1506 12.1628 9.85992C11.8244 9.73649 11.4535 9.73542 11.1144 9.85692C10.2049 10.1626 9.55301 10.7003 9.22631 11.41C8.91088 12.0965 8.9259 12.9023 9.26687 13.7405C10.2545 16.164 11.6424 18.2774 13.393 20.0213C15.1061 21.7284 17.212 23.126 19.6513 24.1767C19.8714 24.2714 20.1019 24.3232 20.2709 24.3607C20.328 24.3735 20.3775 24.3848 20.4136 24.3945C20.4334 24.3999 20.4539 24.4027 20.4744 24.4028H20.494C21.6415 24.4028 23.0197 23.3544 23.4425 22.1595C23.8135 21.1125 23.1361 20.5951 22.5923 20.1798ZM17.7287 12.9977C17.5327 13.0022 17.1234 13.0127 16.9799 13.4288C16.9123 13.6241 16.9206 13.7923 17.0039 13.9312C17.1256 14.134 17.3592 14.1971 17.571 14.2316C18.3408 14.3548 18.7366 14.7799 18.8154 15.5707C18.8522 15.9387 19.1008 16.1963 19.4185 16.1963C19.4426 16.1963 19.4667 16.1948 19.4906 16.1918C19.8736 16.1468 20.0591 15.8651 20.0426 15.3552C20.0486 14.8235 19.7707 14.2196 19.2968 13.739C18.8222 13.2568 18.2499 12.9849 17.7287 12.9977Z" fill="white"/>
<defs>
<linearGradient id="paint0_linear_1081_54" x1="16.4103" y1="0.910156" x2="16.4103" y2="32.0896" gradientUnits="userSpaceOnUse">
<stop stop-color="#A848BA"/>
<stop offset="1" stop-color="#8050A0"/>
</linearGradient>
</defs>
</svg>
