<svg width="87" height="87" viewBox="0 0 87 87" fill="none" xmlns="http://www.w3.org/2000/svg">
<path d="M62.0603 37.9021C63.0609 38.4342 63.8979 39.2285 64.4815 40.2C65.0652 41.1714 65.3736 42.2834 65.3736 43.4167C65.3736 44.55 65.0652 45.6619 64.4815 46.6334C63.8979 47.6048 63.0609 48.3991 62.0603 48.9312L35.3686 63.4458C31.0707 65.7854 25.7915 62.7437 25.7915 57.9333V28.9021C25.7915 24.0896 31.0707 21.05 35.3686 23.3854L62.0603 37.9021Z" fill="#A60609"/>
<path d="M14.0833 6.5C12.0721 6.5 10.1433 7.29896 8.72111 8.72111C7.29896 10.1433 6.5 12.0721 6.5 14.0833V27.0833C6.5 27.9453 6.15759 28.7719 5.5481 29.3814C4.9386 29.9909 4.11195 30.3333 3.25 30.3333C2.38805 30.3333 1.5614 29.9909 0.951903 29.3814C0.342409 28.7719 1.81643e-08 27.9453 0 27.0833V14.0833C0 10.3482 1.48378 6.76605 4.12491 4.12491C6.76605 1.48378 10.3482 0 14.0833 0H27.0833C27.9453 1.81643e-08 28.7719 0.342409 29.3814 0.951903C29.9909 1.5614 30.3333 2.38805 30.3333 3.25C30.3333 4.11195 29.9909 4.9386 29.3814 5.5481C28.7719 6.15759 27.9453 6.5 27.0833 6.5H14.0833ZM14.0833 80.1667C12.0721 80.1667 10.1433 79.3677 8.72111 77.9456C7.29896 76.5234 6.5 74.5946 6.5 72.5833V59.5833C6.5 58.7214 6.15759 57.8947 5.5481 57.2852C4.9386 56.6757 4.11195 56.3333 3.25 56.3333C2.38805 56.3333 1.5614 56.6757 0.951903 57.2852C0.342409 57.8947 1.81643e-08 58.7214 0 59.5833V72.5833C0 74.4328 0.364276 76.2641 1.07203 77.9728C1.77978 79.6815 2.81715 81.234 4.12491 82.5418C5.43267 83.8495 6.98521 84.8869 8.69388 85.5946C10.4025 86.3024 12.2339 86.6667 14.0833 86.6667H27.0833C27.9453 86.6667 28.7719 86.3243 29.3814 85.7148C29.9909 85.1053 30.3333 84.2786 30.3333 83.4167C30.3333 82.5547 29.9909 81.7281 29.3814 81.1186C28.7719 80.5091 27.9453 80.1667 27.0833 80.1667H14.0833ZM80.1667 14.0833C80.1667 12.0721 79.3677 10.1433 77.9456 8.72111C76.5234 7.29896 74.5946 6.5 72.5833 6.5H59.5833C58.7214 6.5 57.8947 6.15759 57.2852 5.5481C56.6757 4.9386 56.3333 4.11195 56.3333 3.25C56.3333 2.38805 56.6757 1.5614 57.2852 0.951903C57.8947 0.342409 58.7214 1.81643e-08 59.5833 0H72.5833C74.4328 0 76.2641 0.364276 77.9728 1.07203C79.6815 1.77978 81.234 2.81715 82.5418 4.12491C83.8495 5.43267 84.8869 6.98521 85.5946 8.69388C86.3024 10.4025 86.6667 12.2339 86.6667 14.0833V27.0833C86.6667 27.9453 86.3243 28.7719 85.7148 29.3814C85.1053 29.9909 84.2786 30.3333 83.4167 30.3333C82.5547 30.3333 81.7281 29.9909 81.1186 29.3814C80.5091 28.7719 80.1667 27.9453 80.1667 27.0833V14.0833ZM72.5833 80.1667C74.5946 80.1667 76.5234 79.3677 77.9456 77.9456C79.3677 76.5234 80.1667 74.5946 80.1667 72.5833V59.5833C80.1667 58.7214 80.5091 57.8947 81.1186 57.2852C81.7281 56.6757 82.5547 56.3333 83.4167 56.3333C84.2786 56.3333 85.1053 56.6757 85.7148 57.2852C86.3243 57.8947 86.6667 58.7214 86.6667 59.5833V72.5833C86.6667 74.4328 86.3024 76.2641 85.5946 77.9728C84.8869 79.6815 83.8495 81.234 82.5418 82.5418C81.234 83.8495 79.6815 84.8869 77.9728 85.5946C76.2641 86.3024 74.4328 86.6667 72.5833 86.6667H59.5833C58.7214 86.6667 57.8947 86.3243 57.2852 85.7148C56.6757 85.1053 56.3333 84.2786 56.3333 83.4167C56.3333 82.5547 56.6757 81.7281 57.2852 81.1186C57.8947 80.5091 58.7214 80.1667 59.5833 80.1667H72.5833Z" fill="#A60609"/>
</svg>
