<svg width="32" height="32" viewBox="0 0 32 32" fill="none" xmlns="http://www.w3.org/2000/svg">
<path d="M0.133369 15.8558C0.132593 18.6501 0.865995 21.3785 2.26055 23.7833L0 32L8.44656 29.7952C10.7828 31.0613 13.4003 31.7248 16.0603 31.7249H16.0673C24.8483 31.7249 31.9962 24.6116 32 15.8683C32.0017 11.6316 30.3458 7.64767 27.3374 4.65037C24.3294 1.65333 20.329 0.00193357 16.0666 0C7.28456 0 0.137125 7.11297 0.133499 15.8558" fill="url(#paint0_linear_936_206)"/>
<path d="M12.0678 8.70199C11.7729 8.0345 11.4625 8.02103 11.182 8.00933C10.9524 7.99926 10.6898 8.00001 10.4276 8.00001C10.165 8.00001 9.73848 8.10058 9.37793 8.50148C9.01701 8.90275 8 9.87245 8 11.8447C8 13.8171 9.41068 15.7231 9.60733 15.9909C9.80423 16.2581 12.3307 20.4349 16.332 22.0418C19.6574 23.3771 20.3341 23.1116 21.0558 23.0446C21.7777 22.9779 23.385 22.0751 23.7129 21.139C24.0411 20.2031 24.0411 19.4008 23.9427 19.2331C23.8443 19.0661 23.5818 18.9658 23.1881 18.7654C22.7943 18.5649 20.8589 17.5951 20.4981 17.4613C20.1372 17.3276 19.8748 17.2609 19.6123 17.6623C19.3497 18.063 18.5959 18.9658 18.3661 19.2331C18.1366 19.5011 17.9068 19.5345 17.5132 19.334C17.1193 19.1328 15.8515 18.71 14.3474 17.3445C13.1771 16.2819 12.387 14.9697 12.1574 14.5683C11.9277 14.1675 12.1328 13.9503 12.3302 13.7505C12.5071 13.5709 12.724 13.2824 12.921 13.0484C13.1173 12.8143 13.1828 12.6472 13.3141 12.3799C13.4455 12.1123 13.3797 11.8782 13.2814 11.6777C13.1828 11.4772 12.4178 9.49459 12.0678 8.70199Z" fill="white"/>
<defs>
<linearGradient id="paint0_linear_936_206" x1="0" y1="1600" x2="3200" y2="1600" gradientUnits="userSpaceOnUse">
<stop stop-color="#17912C"/>
<stop offset="1" stop-color="#4CA853" stop-opacity="0.72"/>
</linearGradient>
</defs>
</svg>
