<?xml version="1.0" standalone="no"?>
<!DOCTYPE svg PUBLIC "-//W3C//DTD SVG 20010904//EN"
 "http://www.w3.org/TR/2001/REC-SVG-20010904/DTD/svg10.dtd">
<svg version="1.0" xmlns="http://www.w3.org/2000/svg"
 width="207.000000pt" height="207.000000pt" viewBox="0 0 207.000000 207.000000"
 preserveAspectRatio="xMidYMid meet">
<metadata>
Created by potrace 1.14, written by Peter Selinger 2001-2017
</metadata>
<g transform="translate(0.000000,207.000000) scale(0.100000,-0.100000)"
fill="#000000" stroke="none">
<path d="M1000 2049 c0 -5 -4 -7 -10 -4 -5 3 -10 2 -10 -2 0 -5 -18 -22 -41
-39 -23 -16 -49 -36 -58 -44 -9 -8 -44 -35 -76 -60 -33 -25 -64 -51 -68 -57
-4 -7 -12 -13 -18 -13 -5 0 -20 -11 -33 -25 -13 -14 -27 -25 -31 -25 -4 0 -31
-20 -59 -45 -29 -25 -56 -45 -59 -45 -6 0 -43 -30 -93 -77 -13 -12 -24 -20
-24 -16 0 3 -18 -10 -39 -28 -49 -42 -84 -71 -139 -111 -23 -18 -42 -36 -42
-41 0 -4 -5 -5 -10 -2 -6 3 -13 -1 -16 -9 -3 -9 -12 -16 -20 -16 -8 0 -14 -4
-14 -8 0 -4 -23 -25 -51 -46 -87 -65 -89 -67 -89 -111 0 -31 5 -44 23 -55 24
-16 37 -19 51 -12 20 11 86 9 87 -2 1 -16 6 -936 5 -937 -1 0 -20 -2 -44 -5
-72 -8 -122 -67 -122 -143 0 -35 3 -40 31 -50 72 -25 219 -3 242 36 5 7 14 10
20 6 7 -4 26 -9 42 -12 39 -5 693 -4 849 1 102 3 125 1 154 -15 35 -18 62 -21
237 -21 44 0 141 0 215 0 137 -1 156 3 201 42 10 9 19 24 19 34 0 9 5 20 10
23 6 4 7 12 3 18 -11 17 -33 80 -33 95 0 13 -80 89 -88 84 -2 -2 -12 7 -21 21
-14 22 -16 72 -15 426 0 221 3 403 5 405 2 2 30 0 61 -3 56 -7 57 -6 97 32 23
21 41 40 41 42 0 1 -26 22 -57 46 -59 46 -75 59 -117 97 -14 12 -29 22 -34 22
-4 0 -21 14 -37 30 -16 17 -33 30 -37 30 -5 0 -23 15 -41 33 l-32 32 1 195 c1
107 5 205 7 218 4 13 1 22 -6 23 -7 0 -83 1 -170 1 -125 1 -161 -2 -167 -13
-5 -7 -6 -16 -1 -19 12 -9 9 -150 -3 -143 -24 14 -92 67 -103 82 -7 8 -13 11
-13 7 0 -4 -17 9 -37 28 -21 20 -42 36 -46 36 -4 0 -19 10 -33 23 -57 51 -64
57 -64 51 0 -4 -9 5 -21 20 -20 26 -59 36 -59 15z"/>
</g>
</svg>
